<svg xmlns="http://www.w3.org/2000/svg" xmlns:xlink="http://www.w3.org/1999/xlink" width="1080" zoomAndPan="magnify" viewBox="0 0 810 1439.999935" height="1920" preserveAspectRatio="xMidYMid meet" version="1.0"><path stroke-linecap="butt" transform="matrix(-0.75, 0, 0, -0.75, 742.432514, 1219.303362)" fill="none" stroke-linejoin="miter" d="M -0.00143989 8.998234 L 928.956974 8.998234 " stroke="#092e60" stroke-width="18" stroke-opacity="1" stroke-miterlimit="4"/><path stroke-linecap="butt" transform="matrix(0.00533891, -0.749981, 0.749981, 0.00533891, 728.941371, 1212.043939)" fill="none" stroke-linejoin="miter" d="M -0.00234598 9.000293 L 1359.355143 9.000722 " stroke="#092e60" stroke-width="18" stroke-opacity="1" stroke-miterlimit="4"/><path stroke-linecap="butt" transform="matrix(-0.75, 0, 0, -0.75, 750.207433, 199.626539)" fill="none" stroke-linejoin="miter" d="M 0.000535879 9.002052 L 928.95895 9.002052 " stroke="#092e60" stroke-width="18" stroke-opacity="1" stroke-miterlimit="4"/><path stroke-linecap="butt" transform="matrix(0.00533891, -0.749981, 0.749981, 0.00533891, 46.738893, 1212.365971)" fill="none" stroke-linejoin="miter" d="M -0.0000595547 8.999413 L 1359.352222 8.99988 " stroke="#092e60" stroke-width="18" stroke-opacity="1" stroke-miterlimit="4"/><path stroke-linecap="butt" transform="matrix(0.75, 0, 0, 0.75, 60.750075, 695.601016)" fill="none" stroke-linejoin="miter" d="M -0.000100544 9.00073 L 904.765603 9.00073 " stroke="#092e60" stroke-width="18" stroke-opacity="1" stroke-miterlimit="4"/><path stroke-linecap="butt" transform="matrix(-0.75, 0, 0, -0.75, 519.735669, 808.521126)" fill="none" stroke-linejoin="miter" d="M 7.819435 139.981305 C 107.39236 -34.659335 206.965285 -34.659335 306.543419 139.981305 " stroke="#092e60" stroke-width="18" stroke-opacity="1" stroke-miterlimit="4"/><path stroke-linecap="butt" transform="matrix(0.75, 0, 0, 0.75, 283.966165, 593.769)" fill="none" stroke-linejoin="miter" d="M 7.815948 139.985095 C 107.394081 -34.660754 206.967007 -34.660754 306.539932 139.985095 " stroke="#092e60" stroke-width="18" stroke-opacity="1" stroke-miterlimit="4"/><path stroke-linecap="butt" transform="matrix(-0.536097, 0.524499, -0.524499, -0.536097, 764.27508, 269.390112)" fill="none" stroke-linejoin="miter" d="M 6.317114 139.980662 C 183.562805 -34.660394 360.806781 -34.661374 538.052766 139.981365 " stroke="#092e60" stroke-width="18" stroke-opacity="1" stroke-miterlimit="4"/><path stroke-linecap="butt" transform="matrix(-0.519033, -0.541391, 0.541391, -0.519033, 329.93747, 552.653956)" fill="none" stroke-linejoin="miter" d="M 6.382341 139.982617 C 179.88827 -34.660294 353.392651 -34.660533 526.891881 139.98566 " stroke="#092e60" stroke-width="18" stroke-opacity="1" stroke-miterlimit="4"/><path stroke-linecap="butt" transform="matrix(0.536097, -0.524499, 0.524499, 0.536097, 46.327082, 1133.883506)" fill="none" stroke-linejoin="miter" d="M 6.316711 139.979931 C 183.562401 -34.661125 360.806377 -34.662105 538.052363 139.980635 " stroke="#092e60" stroke-width="18" stroke-opacity="1" stroke-miterlimit="4"/><path stroke-linecap="butt" transform="matrix(0.519033, 0.541391, -0.541391, 0.519033, 480.663457, 850.742954)" fill="none" stroke-linejoin="miter" d="M 6.384398 139.983413 C 179.886568 -34.663101 353.390949 -34.66334 526.890178 139.982853 " stroke="#092e60" stroke-width="18" stroke-opacity="1" stroke-miterlimit="4"/><path stroke-linecap="butt" transform="matrix(-0.455882, 0.595543, -0.595543, -0.455882, 533.67074, 219.444103)" fill="none" stroke-linejoin="miter" d="M 5.373654 56.432056 C 90.381498 -6.81063 156.857629 -6.811643 204.797911 56.432183 " stroke="#092e60" stroke-width="18" stroke-opacity="1" stroke-miterlimit="4"/><path stroke-linecap="butt" transform="matrix(-0.437426, -0.609228, 0.609228, -0.437426, 375.717965, 344.561902)" fill="none" stroke-linejoin="miter" d="M 7.184818 56.012029 C 54.486393 -6.670556 120.142291 -6.669166 204.162817 56.010775 " stroke="#092e60" stroke-width="18" stroke-opacity="1" stroke-miterlimit="4"/><path stroke-linecap="butt" transform="matrix(0.455882, -0.595543, 0.595543, 0.455882, 276.529681, 1184.559261)" fill="none" stroke-linejoin="miter" d="M 5.372105 56.431222 C 90.379949 -6.811464 156.85608 -6.812477 204.799528 56.435485 " stroke="#092e60" stroke-width="18" stroke-opacity="1" stroke-miterlimit="4"/><path stroke-linecap="butt" transform="matrix(0.437426, 0.609228, -0.609228, 0.437426, 434.476157, 1059.448376)" fill="none" stroke-linejoin="miter" d="M 7.183074 56.008822 C 54.481611 -6.669532 120.144777 -6.669335 204.161073 56.007568 " stroke="#092e60" stroke-width="18" stroke-opacity="1" stroke-miterlimit="4"/></svg>