<svg xmlns="http://www.w3.org/2000/svg" xmlns:xlink="http://www.w3.org/1999/xlink" width="1920" zoomAndPan="magnify" viewBox="0 0 1440 809.999993" height="1080" preserveAspectRatio="xMidYMid meet" version="1.0"><path stroke-linecap="butt" transform="matrix(0, 0.75, -0.75, 0, 1277.000342, 41.451479)" fill="none" stroke-linejoin="miter" d="M 0.00219505 10.000456 L 1001.231412 10.000456 " stroke="#092e60" stroke-width="20" stroke-opacity="1" stroke-miterlimit="4"/><path stroke-linecap="butt" transform="matrix(-0.749981, -0.00533891, 0.00533891, -0.749981, 1268.953886, 56.21058)" fill="none" stroke-linejoin="miter" d="M -0.000717556 9.999783 L 1465.114633 10.002578 " stroke="#092e60" stroke-width="20" stroke-opacity="1" stroke-miterlimit="4"/><path stroke-linecap="butt" transform="matrix(0, 0.75, -0.75, 0, 177.989544, 33.071752)" fill="none" stroke-linejoin="miter" d="M -0.00191893 10.001684 L 1001.232506 10.001684 " stroke="#092e60" stroke-width="20" stroke-opacity="1" stroke-miterlimit="4"/><path stroke-linecap="butt" transform="matrix(-0.749981, -0.00533891, 0.00533891, -0.749981, 1269.300998, 791.490556)" fill="none" stroke-linejoin="miter" d="M -0.00145532 9.998089 L 1465.113895 10.000884 " stroke="#092e60" stroke-width="20" stroke-opacity="1" stroke-miterlimit="4"/><path stroke-linecap="butt" transform="matrix(0, -0.75, 0.75, 0, 712.106874, 776.167781)" fill="none" stroke-linejoin="miter" d="M -0.000250397 9.998126 L 975.156049 9.998126 " stroke="#092e60" stroke-width="20" stroke-opacity="1" stroke-miterlimit="4"/><path stroke-linecap="butt" transform="matrix(0, 0.75, -0.75, 0, 834.260892, 281.279917)" fill="none" stroke-linejoin="miter" d="M 8.689278 151.175989 C 116.006991 -37.058396 223.329914 -37.058396 330.652836 151.175989 " stroke="#092e60" stroke-width="20" stroke-opacity="1" stroke-miterlimit="4"/><path stroke-linecap="butt" transform="matrix(0, -0.75, 0.75, 0, 602.34948, 535.776017)" fill="none" stroke-linejoin="miter" d="M 8.685731 151.174659 C 116.008654 -37.059725 223.331576 -37.059725 330.654498 151.174659 " stroke="#092e60" stroke-width="20" stroke-opacity="1" stroke-miterlimit="4"/><path stroke-linecap="butt" transform="matrix(0.524499, 0.536097, -0.536097, 0.524499, 253.010677, 17.630195)" fill="none" stroke-linejoin="miter" d="M 7.019175 151.17361 C 198.056654 -37.057778 389.086352 -37.058507 580.126721 151.174903 " stroke="#092e60" stroke-width="20" stroke-opacity="1" stroke-miterlimit="4"/><path stroke-linecap="butt" transform="matrix(-0.541391, 0.519033, -0.519033, -0.541391, 558.542858, 486.085196)" fill="none" stroke-linejoin="miter" d="M 7.092608 151.174681 C 194.096284 -37.05821 381.097671 -37.05569 568.096615 151.174877 " stroke="#092e60" stroke-width="20" stroke-opacity="1" stroke-miterlimit="4"/><path stroke-linecap="butt" transform="matrix(-0.524499, -0.536097, 0.536097, -0.524499, 1184.665843, 791.9827)" fill="none" stroke-linejoin="miter" d="M 7.019496 151.172547 C 198.053333 -37.055118 389.090395 -37.055928 580.127042 151.17384 " stroke="#092e60" stroke-width="20" stroke-opacity="1" stroke-miterlimit="4"/><path stroke-linecap="butt" transform="matrix(0.541391, -0.519033, 0.519033, 0.541391, 879.272962, 323.525601)" fill="none" stroke-linejoin="miter" d="M 7.094484 151.173854 C 194.098159 -37.059037 381.095787 -37.060121 568.098491 151.17405 " stroke="#092e60" stroke-width="20" stroke-opacity="1" stroke-miterlimit="4"/><path stroke-linecap="butt" transform="matrix(0.595543, 0.455882, -0.455882, 0.595543, 199.16487, 266.187693)" fill="none" stroke-linejoin="miter" d="M 5.971587 61.124849 C 97.592748 -7.042524 169.239993 -7.040255 220.914292 61.124355 " stroke="#092e60" stroke-width="20" stroke-opacity="1" stroke-miterlimit="4"/><path stroke-linecap="butt" transform="matrix(-0.609228, 0.437426, -0.437426, -0.609228, 334.252693, 436.76335)" fill="none" stroke-linejoin="miter" d="M 7.984592 60.665563 C 58.964789 -6.890401 129.730144 -6.887968 220.283696 60.668633 " stroke="#092e60" stroke-width="20" stroke-opacity="1" stroke-miterlimit="4"/><path stroke-linecap="butt" transform="matrix(-0.595543, -0.455882, 0.455882, -0.595543, 1239.302992, 543.858689)" fill="none" stroke-linejoin="miter" d="M 5.970247 61.125047 C 97.591408 -7.042327 169.238652 -7.040058 220.912951 61.124553 " stroke="#092e60" stroke-width="20" stroke-opacity="1" stroke-miterlimit="4"/><path stroke-linecap="butt" transform="matrix(0.609228, -0.437426, 0.437426, 0.609228, 1104.209471, 373.280156)" fill="none" stroke-linejoin="miter" d="M 7.980644 60.668258 C 58.960841 -6.887707 129.729234 -6.889504 220.282786 60.667097 " stroke="#092e60" stroke-width="20" stroke-opacity="1" stroke-miterlimit="4"/></svg>