<svg xmlns="http://www.w3.org/2000/svg" xmlns:xlink="http://www.w3.org/1999/xlink" width="600" zoomAndPan="magnify" viewBox="0 0 450 599.999999" height="800" preserveAspectRatio="xMidYMid meet" version="1.0"><path stroke-linecap="butt" transform="matrix(0.75, 0, 0, 0.75, 48.7499, 32.860313)" fill="none" stroke-linejoin="miter" d="M 0.000133673 4.99875 L 480.000154 4.99875 " stroke="#092e60" stroke-width="10" stroke-opacity="1" stroke-miterlimit="4"/><path stroke-linecap="butt" transform="matrix(-0.00533891, 0.749981, -0.749981, -0.00533891, 56.244, 36.642763)" fill="none" stroke-linejoin="miter" d="M 0.00151057 5.002533 L 702.389134 5.002554 " stroke="#092e60" stroke-width="10" stroke-opacity="1" stroke-miterlimit="4"/><path stroke-linecap="butt" transform="matrix(0.75, 0, 0, 0.75, 44.999998, 559.499996)" fill="none" stroke-linejoin="miter" d="M 0.00000226 5.000005 L 480.000023 5.000005 " stroke="#092e60" stroke-width="10" stroke-opacity="1" stroke-miterlimit="4"/><path stroke-linecap="butt" transform="matrix(-0.00533891, 0.749981, -0.749981, -0.00533891, 408.744055, 36.476364)" fill="none" stroke-linejoin="miter" d="M -0.000618996 4.997413 L 702.392212 4.997396 " stroke="#092e60" stroke-width="10" stroke-opacity="1" stroke-miterlimit="4"/><path stroke-linecap="butt" transform="matrix(-0.75, 0, 0, -0.75, 401.249894, 303.750007)" fill="none" stroke-linejoin="miter" d="M -0.000140927 5.00001 L 467.499879 5.00001 " stroke="#092e60" stroke-width="10" stroke-opacity="1" stroke-miterlimit="4"/><path stroke-linecap="butt" transform="matrix(0.75, 0, 0, 0.75, 163.85995, 244.877455)" fill="none" stroke-linejoin="miter" d="M 4.342983 72.679021 C 55.796111 -17.560566 107.24403 -17.560566 158.697157 72.679021 " stroke="#092e60" stroke-width="10" stroke-opacity="1" stroke-miterlimit="4"/><path stroke-linecap="butt" transform="matrix(-0.75, 0, 0, -0.75, 286.133366, 356.367192)" fill="none" stroke-linejoin="miter" d="M 4.344489 72.682301 C 55.792408 -17.562495 107.245535 -17.562495 158.698662 72.682301 " stroke="#092e60" stroke-width="10" stroke-opacity="1" stroke-miterlimit="4"/><path stroke-linecap="butt" transform="matrix(0.536097, -0.524499, 0.524499, 0.536097, 37.4151, 523.65403)" fill="none" stroke-linejoin="miter" d="M 3.509848 72.681234 C 95.093231 -17.561033 186.67641 -17.560758 278.263029 72.678337 " stroke="#092e60" stroke-width="10" stroke-opacity="1" stroke-miterlimit="4"/><path stroke-linecap="butt" transform="matrix(0.519033, 0.541391, -0.541391, 0.519033, 262.215339, 377.031626)" fill="none" stroke-linejoin="miter" d="M 3.54654 72.681437 C 93.197809 -17.557805 182.847193 -17.558227 272.494692 72.68017 " stroke="#092e60" stroke-width="10" stroke-opacity="1" stroke-miterlimit="4"/><path stroke-linecap="butt" transform="matrix(-0.536097, 0.524499, -0.524499, -0.536097, 408.744439, 77.313619)" fill="none" stroke-linejoin="miter" d="M 3.510286 72.679608 C 95.093669 -17.562658 186.676849 -17.562383 278.259824 72.680434 " stroke="#092e60" stroke-width="10" stroke-opacity="1" stroke-miterlimit="4"/><path stroke-linecap="butt" transform="matrix(-0.519033, -0.541391, 0.541391, -0.519033, 183.937975, 223.873136)" fill="none" stroke-linejoin="miter" d="M 3.546003 72.67913 C 93.197272 -17.560112 182.846656 -17.560535 272.497915 72.681467 " stroke="#092e60" stroke-width="10" stroke-opacity="1" stroke-miterlimit="4"/><path stroke-linecap="butt" transform="matrix(0.455882, -0.595543, 0.595543, 0.455882, 156.580424, 549.478245)" fill="none" stroke-linejoin="miter" d="M 2.986306 29.508871 C 46.908548 -3.168665 81.259176 -3.168141 106.030889 29.509476 " stroke="#092e60" stroke-width="10" stroke-opacity="1" stroke-miterlimit="4"/><path stroke-linecap="butt" transform="matrix(0.437426, 0.609228, -0.609228, 0.437426, 238.589229, 484.549895)" fill="none" stroke-linejoin="miter" d="M 3.991535 29.287969 C 28.431682 -3.099129 62.360953 -3.096335 105.770886 29.290276 " stroke="#092e60" stroke-width="10" stroke-opacity="1" stroke-miterlimit="4"/><path stroke-linecap="butt" transform="matrix(-0.455882, 0.595543, -0.595543, -0.455882, 289.781707, 51.110087)" fill="none" stroke-linejoin="miter" d="M 2.98284 29.509593 C 46.909217 -3.171109 81.259845 -3.170584 106.031558 29.507033 " stroke="#092e60" stroke-width="10" stroke-opacity="1" stroke-miterlimit="4"/><path stroke-linecap="butt" transform="matrix(-0.437426, -0.609228, 0.609228, -0.437426, 207.776125, 116.041625)" fill="none" stroke-linejoin="miter" d="M 3.991925 29.291259 C 28.432073 -3.09584 62.357113 -3.096083 105.774314 29.289335 " stroke="#092e60" stroke-width="10" stroke-opacity="1" stroke-miterlimit="4"/></svg>